:SAMPLES-PER-SECOND 30
:FULLY-SPECIFIED
:DEGREES
267
root  35.078 33.5595 -63.7621 7.70263 -30.4949 -0.601337
RightUpLeg  -8.55518 -15.9912 4.64134
RightLeg  23.573 -13.5261 -4.83496
RightFoot  -2.77303 0.00536399 0.599316
RightToes  -29.9372 -0.143488 -0.251529
Spine  5.6392 0.546804 2.54807
Spine1  10.4342 2.16431 2.36953
HEad  23.8629 48.6567 -6.60643
LeftShoulder1  0 -2.42657e-020 -4.95415e-022
LeftArm  -18.1459 2.84491 -92.2631
LeftForeArm  52.8717 -23.7128 -4.404
LeftHand  0.148939 -10.7085 -1.96026
RightShoulder  0 2.42657e-020 1.07489e-018
RightArm  -59.3577 10.3666 51.7084
RightForeArm  24.1177 24.9459 4.7001
RightHand  -0.375034 16.5453 -2.2098
LeftUpLeg  -16.5474 -10.2295 1.05683
LeftLeg  30.018 -3.53135 -1.75015
LeftFoot  -4.22501 0.00686979 0.18623
LeftToes  -12.1492 8.72033e-007 1.17809e-007
268
root  34.9012 33.5336 -63.6839 7.61604 -29.6026 -0.978009
RightUpLeg  -9.29843 -16.5885 4.80286
RightLeg  26.2897 -12.4869 -5.14508
RightFoot  -2.58642 0.00296599 0.509072
RightToes  -31.9342 -0.157464 -0.265182
Spine  5.7233 0.647281 2.4617
Spine1  10.5595 2.36529 2.1906
HEad  23.9093 48.9009 -6.93383
LeftShoulder1  0 -2.42657e-020 -4.95415e-022
LeftArm  -19.8899 2.88874 -92.1156
LeftForeArm  53.1599 -22.5963 -4.17012
LeftHand  0.15375 -10.5707 -2.03315
RightShoulder  0 2.42657e-020 1.07489e-018
RightArm  -60.3738 9.20027 53.1539
RightForeArm  29.5076 20.9025 3.85476
RightHand  -0.393253 16.4055 -2.35846
LeftUpLeg  -16.6511 -10.3303 1.68739
LeftLeg  30.9676 -4.42753 -2.2842
LeftFoot  -4.27406 0.00946901 0.253745
LeftToes  -13.6995 8.72033e-007 1.17809e-007
269
root  34.7539 33.5121 -63.624 7.49063 -29.3101 -1.1299
RightUpLeg  -10.7215 -16.1328 4.46325
RightLeg  30.1016 -10.2645 -5.06412
RightFoot  -2.76793 0.00201661 0.461136
RightToes  -31.7329 -0.156035 -0.263828
Spine  5.75301 0.761 2.1796
Spine1  10.6112 2.53522 1.81345
HEad  23.82 49.5286 -7.41359
LeftShoulder1  0 -2.42657e-020 -4.95415e-022
LeftArm  -21.916 3.19865 -91.612
LeftForeArm  53.6254 -21.4994 -3.94378
LeftHand  0.166541 -10.3857 -2.20377
RightShoulder  0 2.42657e-020 1.07489e-018
RightArm  -60.3167 7.55976 55.6523
RightForeArm  33.6676 18.5568 3.38461
RightHand  -0.330917 16.8305 -1.86726
LeftUpLeg  -16.5839 -10.1996 2.075
LeftLeg  31.5205 -5.11384 -2.69898
LeftFoot  -4.25659 0.0115083 0.309663
LeftToes  -15.346 8.72033e-007 1.17809e-007
270
root  34.6267 33.4737 -63.5962 7.43846 -29.4503 -1.06648
RightUpLeg  -12.6763 -13.8643 3.64375
RightLeg  34.5069 -7.27086 -4.33026
RightFoot  -3.59863 0.00245223 0.455698
RightToes  -27.7081 -0.128461 -0.235725
Spine  5.71433 0.825473 1.81143
Spine1  10.5705 2.58828 1.33666
HEad  23.4948 50.4835 -8.21882
LeftShoulder1  0 -2.42657e-020 -4.95415e-022
LeftArm  -24.2339 3.86718 -90.8498
LeftForeArm  54.3337 -20.504 -3.74088
LeftHand  0.16725 -10.2797 -2.23067
RightShoulder  0 2.42657e-020 1.07489e-018
RightArm  -58.3582 5.44167 58.7497
RightForeArm  35.624 18.0811 3.28985
RightHand  -0.264666 17.5339 -1.34655
LeftUpLeg  -16.4195 -10.0726 2.22545
LeftLeg  31.5871 -5.36258 -2.83746
LeftFoot  -4.41575 0.0136271 0.353447
LeftToes  -16.4279 8.72033e-007 1.17809e-007
271
root  34.4979 33.4224 -63.5826 7.39426 -29.495 -0.939264
RightUpLeg  -14.1657 -11.0677 2.32286
RightLeg  37.3503 -5.76691 -3.84552
RightFoot  -5.42661 0.0104279 0.597664
RightToes  -26.2567 -0.119012 -0.225126
Spine  5.68844 0.738272 1.5052
Spine1  10.5722 2.32516 0.969884
HEad  22.7705 51.5905 -9.60341
LeftShoulder1  0 -2.42657e-020 -4.95415e-022
LeftArm  -26.5957 4.7928 -90.0076
LeftForeArm  54.6123 -19.5965 -3.55897
LeftHand  0.158117 -10.1309 -2.15508
RightShoulder  0 2.42657e-020 1.07489e-018
RightArm  -55.066 2.99128 61.8665
RightForeArm  35.2809 18.9375 3.45813
RightHand  -0.247577 18.0762 -1.18676
LeftUpLeg  -16.2595 -10.2348 2.27531
LeftLeg  31.5553 -5.23262 -2.76538
LeftFoot  -4.73454 0.0131043 0.381029
LeftToes  -16.9883 8.72033e-007 1.17809e-007
272
root  34.3409 33.3996 -63.6051 7.60028 -29.3463 -1.10862
RightUpLeg  -14.8107 -8.52527 0.851493
RightLeg  36.825 -6.8425 -4.46316
RightFoot  -7.95554 0.0494111 1.08821
RightToes  -24.1253 -0.105629 -0.209135
Spine  5.65348 0.602334 1.40558
Spine1  10.5465 1.93399 0.996916
HEad  21.8559 52.7603 -11.5678
LeftShoulder1  0 -2.42657e-020 -4.95415e-022
LeftArm  -28.8692 5.68514 -89.3187
LeftForeArm  54.9235 -18.3371 -3.31017
LeftHand  0.141576 -9.86092 -2.0124
RightShoulder  0 2.42657e-020 1.07489e-018
RightArm  -52.0874 0.351987 64.5957
RightForeArm  35.1555 20.1967 3.70856
RightHand  -0.233594 18.8977 -1.03387
LeftUpLeg  -16.2521 -10.477 2.58202
LeftLeg  31.4538 -4.75792 -2.50504
LeftFoot  -5.01427 0.013739 0.362951
LeftToes  -17.1424 8.72033e-007 1.17809e-007
273
root  34.1684 33.4283 -63.6667 8.09693 -28.9589 -1.36369
RightUpLeg  -14.8954 -6.81498 -0.770352
RightLeg  33.0223 -8.72988 -4.88511
RightFoot  -9.66053 0.108333 1.65959
RightToes  -22.0424 -0.0931344 -0.193037
Spine  5.54079 0.458508 1.41407
Spine1  10.3726 1.50407 1.23231
HEad  20.8741 53.6403 -13.4101
LeftShoulder1  0 -2.42657e-020 -4.95415e-022
LeftArm  -32.0323 6.40003 -88.8784
LeftForeArm  56.5791 -16.6078 -2.9721
LeftHand  0.125911 -9.5796 -1.87386
RightShoulder  0 2.42657e-020 1.07489e-018
RightArm  -49.6446 -2.4273 66.8848
RightForeArm  35.8242 21.4033 3.95181
RightHand  -0.284764 19.6566 -1.27406
LeftUpLeg  -16.4699 -11.0461 3.18734
LeftLeg  31.1432 -4.58661 -2.38366
LeftFoot  -4.87131 0.0139903 0.328897
LeftToes  -17.6181 8.72033e-007 1.17809e-007
274
root  33.9436 33.4917 -63.7427 8.64414 -28.7269 -1.57271
RightUpLeg  -14.5703 -5.55011 -2.34792
RightLeg  27.3085 -10.2525 -4.45451
RightFoot  -8.65665 0.0990403 1.68617
RightToes  -21.8457 -0.0919848 -0.191494
Spine  5.34138 0.440478 1.39683
Spine1  10.0394 1.31803 1.44229
HEad  21.1058 54.1188 -13.8465
LeftShoulder1  0 -2.42657e-020 -4.95415e-022
LeftArm  -35.4698 7.03367 -88.3443
LeftForeArm  58.9055 -14.6402 -2.59393
LeftHand  0.111534 -9.16011 -1.76352
RightShoulder  0 2.42657e-020 1.07489e-018
RightArm  -47.5978 -5.1738 68.9493
RightForeArm  37.0452 22.0018 4.07313
RightHand  -0.397857 19.9644 -1.89078
LeftUpLeg  -16.4492 -10.9822 3.82738
LeftLeg  30.2599 -4.7018 -2.35202
LeftFoot  -4.46622 0.0115144 0.295271
LeftToes  -18.1728 8.72033e-007 1.17809e-007
275
root  33.6583 33.5465 -63.8246 8.92871 -28.6695 -1.56278
RightUpLeg  -13.9229 -4.0527 -3.7586
RightLeg  21.4798 -10.9538 -3.48921
RightFoot  -3.36762 0.00890087 0.680476
RightToes  -24.8187 -0.109918 -0.214392
Spine  5.10967 0.500215 1.26781
Spine1  9.64631 1.31406 1.42002
HEad  22.6129 54.3816 -12.7904
LeftShoulder1  0 -2.42657e-020 -4.95415e-022
LeftArm  -39.5717 7.59113 -87.5773
LeftForeArm  62.1593 -12.6368 -2.21384
LeftHand  0.0913395 -8.86609 -1.5493
RightShoulder  0 2.42657e-020 1.07489e-018
RightArm  -46.3695 -7.7081 71.0224
RightForeArm  38.9001 21.9921 4.06915
RightHand  -0.477941 20.5291 -2.26946
LeftUpLeg  -15.9696 -11.1928 4.29841
LeftLeg  28.9542 -4.52242 -2.13542
LeftFoot  -4.076 0.0085304 0.239711
LeftToes  -18.6248 8.72033e-007 1.17809e-007
276
root  33.3174 33.5635 -63.9271 8.79614 -28.4441 -1.16093
RightUpLeg  -13.2098 -3.74041 -4.94522
RightLeg  17.2559 -8.31955 -1.99896
RightFoot  0.495845 0.0019155 -0.0650349
RightToes  -30.1725 -0.145111 -0.253163
Spine  4.9312 0.463377 1.03565
Spine1  9.35563 1.14313 1.19093
HEad  24.0635 54.5868 -11.6164
LeftShoulder1  0 -2.42657e-020 -4.95415e-022
LeftArm  -43.0079 8.19005 -86.5361
LeftForeArm  64.7343 -11.2421 -1.95191
LeftHand  0.0773178 -8.41078 -1.4226
RightShoulder  0 2.42657e-020 1.07489e-018
RightArm  -46.0413 -9.71654 73.1194
RightForeArm  41.2024 21.5911 3.98422
RightHand  -0.462027 21.443 -2.07043
LeftUpLeg  -15.2165 -12.0577 4.49742
LeftLeg  27.548 -3.97802 -1.7614
LeftFoot  -3.74352 0.00569314 0.174199
LeftToes  -18.9438 8.72033e-007 1.17809e-007
277
root  32.9003 33.5438 -64.0731 8.49499 -27.6533 -0.609295
RightUpLeg  -12.699 -4.55968 -5.49704
RightLeg  15.8449 -4.11292 -0.884706
RightFoot  3.97695 0.022643 -0.274569
RightToes  -34.942 -0.17939 -0.284805
Spine  4.80646 0.287603 0.788476
Spine1  9.16034 0.721713 0.907271
HEad  25.3251 54.7797 -10.4921
LeftShoulder1  0 -2.42657e-020 -4.95415e-022
LeftArm  -44.4628 8.82248 -85.2883
LeftForeArm  65.3338 -10.6428 -1.84137
LeftHand  0.0646958 -7.95886 -1.30105
RightShoulder  0 2.42657e-020 1.07489e-018
RightArm  -45.7259 -11.452 75.1442
RightForeArm  43.365 21.0989 3.88116
RightHand  -0.503594 21.9435 -2.2278
LeftUpLeg  -14.6332 -12.5268 4.8409
LeftLeg  26.3742 -4.39256 -1.83753
LeftFoot  -3.29941 0.00497702 0.171245
LeftToes  -20.2182 8.72033e-007 1.17809e-007
278
root  32.4569 33.484 -64.2186 7.8484 -26.1031 0.313409
RightUpLeg  -12.357 -7.17734 -5.71306
RightLeg  16.7153 -2.30661 -0.533498
RightFoot  2.07852 0.0112771 -0.0580187
RightToes  -34.8464 -0.178678 -0.284199
Spine  4.72353 -0.0131557 0.475003
Spine1  9.03515 0.0700434 0.470093
HEad  26.6255 54.8871 -9.31714
LeftShoulder1  0 -2.42657e-020 -4.95415e-022
LeftArm  -44.7921 9.19777 -83.9616
LeftForeArm  65.3611 -10.4665 -1.80929
LeftHand  0.0612338 -7.83323 -1.26544
RightShoulder  0 2.42657e-020 1.07489e-018
RightArm  -46.3523 -13.3966 77.1947
RightForeArm  45.3971 20.951 3.84824
RightHand  -0.519341 22.6181 -2.22709
LeftUpLeg  -14.1702 -13.1778 5.00921
LeftLeg  25.4478 -5.5085 -2.19806
LeftFoot  -2.83958 0.00465635 0.198085
LeftToes  -21.7175 8.72033e-007 1.17809e-007
279
root  31.9792 33.4257 -64.3605 6.94881 -23.9016 0.973536
RightUpLeg  -11.1149 -9.27581 -5.28458
RightLeg  16.7746 -3.22445 -0.749049
RightFoot  0.095471 0.00662034 0.0272612
RightToes  -31.7299 -0.156013 -0.263807
Spine  4.73804 -0.309401 0.33824
Spine1  9.08558 -0.593998 0.387915
HEad  27.8792 54.7621 -8.60091
LeftShoulder1  0 -2.42657e-020 -4.95415e-022
LeftArm  -44.364 9.13242 -83.0955
LeftForeArm  65.1593 -10.6247 -1.8385
LeftHand  0.0704263 -7.91743 -1.38882
RightShoulder  0 2.42657e-020 1.07489e-018
RightArm  -47.6883 -15.3173 78.854
RightForeArm  46.5852 20.6931 3.79429
RightHand  -0.662042 23.019 -2.88121
LeftUpLeg  -13.4605 -14.5537 5.32915
LeftLeg  24.5622 -6.25981 -2.38476
LeftFoot  -2.42846 0.00410277 0.193559
LeftToes  -23.0687 8.72033e-007 1.17809e-007
280
root  31.4967 33.422 -64.5071 6.05774 -21.636 1.26039
RightUpLeg  -9.10226 -7.95733 -4.62948
RightLeg  15.7278 -6.76801 -1.43884
RightFoot  -0.605695 0.00122095 0.104819
RightToes  -29.8375 -0.142804 -0.250835
Spine  4.86416 -0.520677 0.377053
Spine1  9.33099 -1.08917 0.616389
HEad  28.8222 54.7075 -8.31761
LeftShoulder1  0 -2.42657e-020 -4.95415e-022
LeftArm  -43.575 8.69534 -82.8626
LeftForeArm  64.1277 -11.0985 -1.92718
LeftHand  0.080612 -7.91476 -1.53651
RightShoulder  0 2.42657e-020 1.07489e-018
RightArm  -48.1409 -16.9668 79.8276
RightForeArm  46.3209 20.4078 3.73725
RightHand  -0.758327 22.5735 -3.42922
LeftUpLeg  -12.5104 -15.9795 5.87156
LeftLeg  23.4006 -6.86123 -2.45463
LeftFoot  -1.69724 0.00181312 0.122397
LeftToes  -24.0309 8.72033e-007 1.17809e-007
281
root  31.0674 33.4803 -64.7094 5.83293 -19.6684 1.53616
RightUpLeg  -8.10347 -8.07419 -4.08257
RightLeg  14.8928 -8.31791 -1.63984
RightFoot  -0.556193 -0.00029221 0.110616
RightToes  -29.3932 -0.139765 -0.247727
Spine  4.76463 -0.634733 0.513325
Spine1  9.11669 -1.38587 1.01075
HEad  30.1641 54.8318 -7.90825
LeftShoulder1  0 -2.42657e-020 -4.95415e-022
LeftArm  -43.3992 8.44185 -83.4639
LeftForeArm  62.8365 -11.7881 -2.05624
LeftHand  0.0904993 -7.82483 -1.69465
RightShoulder  0 2.42657e-020 1.07489e-018
RightArm  -50.3915 -17.7644 80.2328
RightForeArm  48.1374 19.1031 3.47442
RightHand  -0.79031 22.9886 -3.516
LeftUpLeg  -12.2211 -16.2867 6.57829
LeftLeg  21.9624 -8.08608 -2.66299
LeftFoot  -0.242349 -0.000140666 -0.0665198
LeftToes  -25.4195 8.72033e-007 1.17809e-007
